<svg width="40" height="24" viewBox="0 0 82 49" fill="none" xmlns="http://www.w3.org/2000/svg">
<path d="M32.1803 9.87606C32.3305 9.87606 32.4056 9.93622 32.4056 10.0566C32.4056 10.1468 32.3305 10.207 32.1803 10.237C31.4291 10.2671 30.7831 10.6131 30.2423 11.2749C29.7315 11.9066 29.1606 13.0346 28.5296 14.659L19.2 38.7092C19.17 38.7694 19.1549 38.8747 19.1549 39.0251C19.1549 39.1755 19.185 39.3108 19.2451 39.4312L19.4704 39.8824C19.5305 40.0629 19.5606 40.1682 19.5606 40.1982C19.5606 40.4088 19.4404 40.5442 19.2 40.6044L15.0986 42.1836C14.9183 42.2438 14.8131 42.2739 14.7831 42.2739C14.5427 42.2739 14.3624 42.1235 14.2423 41.8227L3.69577 14.659C3.03474 13.0045 2.46385 11.8614 1.9831 11.2297C1.50235 10.598 0.901408 10.2671 0.180282 10.237C0.0600939 10.207 0 10.1468 0 10.0566C0 9.93622 0.0600939 9.87606 0.180282 9.87606C1.08169 9.96631 1.74272 10.0114 2.16338 10.0114H9.41972C10.0507 10.0114 11.1324 9.96631 12.6648 9.87606C12.9052 9.87606 13.0254 9.93622 13.0254 10.0566C13.0254 10.1769 12.9052 10.237 12.6648 10.237C10.3812 10.3574 9.23944 11.2147 9.23944 12.809C9.23944 13.3204 9.37465 13.9371 9.64507 14.659L18.7042 38.1226C18.7643 38.243 18.8244 38.3182 18.8845 38.3482C18.9446 38.3783 18.9897 38.3482 19.0197 38.258L19.0648 38.1677V38.1226L28.1239 14.659C28.4244 13.9371 28.5747 13.2903 28.5747 12.7188C28.5747 11.1846 27.523 10.3574 25.4197 10.237C25.2394 10.237 25.1493 10.1769 25.1493 10.0566C25.1493 9.93622 25.2545 9.87606 25.4648 9.87606C26.8169 9.96631 27.8085 10.0114 28.4394 10.0114H30.062C30.4826 10.0114 31.1887 9.96631 32.1803 9.87606Z" fill="black"/>
<path d="M58.2479 41.6422C57.9775 41.6722 57.6169 41.6873 57.1662 41.6873C56.9859 41.6873 56.8807 41.6422 56.8507 41.5519C56.8507 41.4617 56.9559 41.4015 57.1662 41.3714C58.1577 41.3113 58.9089 40.9202 59.4197 40.1982C59.9305 39.4462 60.1859 38.2881 60.1859 36.7238V14.8846C60.1859 13.3204 59.9305 12.1773 59.4197 11.4553C58.9089 10.7033 58.1577 10.2972 57.1662 10.237C56.9559 10.207 56.8507 10.1468 56.8507 10.0566C56.8807 9.96631 56.9859 9.92118 57.1662 9.92118C57.6169 9.92118 57.9775 9.93622 58.2479 9.96631L59.5099 10.0114H72.4901C73.9925 10.0114 75.2995 9.96631 76.4113 9.87606C77.523 9.78582 78.4244 9.69557 79.1155 9.60533C79.5962 9.51508 79.9869 9.46996 80.2873 9.46996C80.5577 9.46996 80.7531 9.54517 80.8732 9.69557C81.0235 9.84598 81.1136 10.1318 81.1437 10.5529C81.2038 13.922 81.4892 17.3964 82 20.9761V21.0664C82 21.2168 81.9399 21.292 81.8197 21.292C81.7296 21.292 81.6695 21.2018 81.6394 21.0213C80.9484 18.6448 80.1221 16.6143 79.1606 14.9298C78.1991 13.2452 77.2376 12.0871 76.2761 11.4553C75.7352 11.0643 74.7737 10.7935 73.3916 10.6431C72.0094 10.4627 69.9662 10.3574 67.262 10.3273C66.2404 10.3273 65.7296 11.1696 65.7296 12.8541V24.6311C65.7296 24.962 65.8047 25.2628 65.9549 25.5335C66.1052 25.7742 66.3455 25.8945 66.6761 25.8945C68.2986 25.8945 69.7108 25.8343 70.9127 25.714C71.5136 25.6538 72.0094 25.5034 72.4 25.2628C72.7906 24.992 73.1512 24.5258 73.4817 23.864C73.8423 23.2022 74.2028 22.2396 74.5634 20.9761C74.6235 20.7957 74.6986 20.7054 74.7887 20.7054C74.9089 20.7054 74.954 20.7957 74.9239 20.9761C74.7437 22.1794 74.6535 23.5632 74.6535 25.1274C74.6535 27.5339 74.8188 29.6848 75.1493 31.5799V31.625C75.1493 31.7453 75.1042 31.8055 75.0141 31.8055C74.924 31.8055 74.8488 31.7303 74.7887 31.5799C74.2178 29.6848 73.6469 28.3762 73.0761 27.6542C72.5052 26.9022 71.784 26.4811 70.9127 26.3908C69.7108 26.2705 68.2986 26.2103 66.6761 26.2103C66.3455 26.2103 66.1052 26.3457 65.9549 26.6164C65.8047 26.8571 65.7296 27.1429 65.7296 27.4738V36.9494C65.7296 38.4836 66.0751 39.5966 66.7662 40.2885C67.4573 40.9503 68.4789 41.3113 69.831 41.3714C70.0714 41.3714 70.1916 41.4316 70.1916 41.5519C70.1916 41.582 70.1465 41.6121 70.0563 41.6422C69.9962 41.6722 69.9211 41.6873 69.831 41.6873C69.23 41.6873 68.7493 41.6722 68.3887 41.6422L66.6761 41.597H59.5099L58.2479 41.6422Z" fill="black"/>
<path d="M43.4367 0H44.8451V49H43.4367V0Z" fill="black"/>
</svg>
